<svg width="486" height="448" viewBox="0 0 486 448" fill="none" xmlns="http://www.w3.org/2000/svg">
<path d="M57.8819 54.6871C57.9548 42.5594 63.0936 30.948 72.1834 22.3722C81.2732 13.7965 93.5807 8.94827 106.435 8.87955C112.975 8.69378 119.488 9.73571 125.597 11.9448C131.706 14.1539 137.289 17.4862 142.022 21.7481C146.754 26.01 150.542 31.1165 153.165 36.7711C155.788 42.4256 157.194 48.5156 157.301 54.6871C157.591 61.0161 156.519 67.3348 154.151 73.2628C151.784 79.1908 148.169 84.6052 143.524 89.1801C138.88 93.755 133.302 97.3958 127.127 99.883C120.951 102.37 114.306 103.652 107.592 103.652C100.877 103.652 94.2317 102.37 88.0563 99.883C81.8809 97.3958 76.3032 93.755 71.6587 89.1801C67.0142 84.6052 63.3993 79.1908 61.0317 73.2628C58.664 67.3348 57.5925 61.0161 57.8819 54.6871ZM379.26 102.676C392.713 102.562 405.581 97.4697 415.094 88.4946C424.607 79.5195 430.005 67.3794 430.126 54.6871C430.019 48.5156 428.613 42.4256 425.99 36.7711C423.367 31.1165 419.579 26.01 414.846 21.7481C410.114 17.4862 404.531 14.1539 398.422 11.9448C392.313 9.73571 385.8 8.69378 379.26 8.87955C366.406 8.94827 354.098 13.7965 345.008 22.3722C335.918 30.948 330.78 42.5594 330.707 54.6871C330.693 67.0455 335.734 78.9324 344.778 87.8719C353.823 96.8114 366.175 102.114 379.26 102.676ZM242.848 109.22C250.459 109.29 258.009 107.927 265.055 105.211C272.101 102.496 278.503 98.4814 283.885 93.4036C289.267 88.3258 293.522 82.2863 296.401 75.6385C299.28 68.9907 300.724 61.868 300.65 54.6871C300.411 40.2943 294.245 26.554 283.456 16.3754C272.668 6.19688 258.104 0.379227 242.848 0.154297C227.722 0.754147 213.386 6.69209 202.681 16.7919C191.976 26.8917 185.682 40.4165 185.046 54.6871C185.284 69.08 191.451 82.8203 202.24 92.9989C213.028 103.177 227.592 108.995 242.848 109.22ZM247.472 128.852H203.543C187.329 130.205 171.97 136.307 159.613 146.302C150.365 155.028 143.429 189.929 136.492 224.83H351.515C344.579 189.929 335.331 155.028 328.395 146.302C315.115 136.355 299.041 130.29 282.153 128.852H247.472ZM453.247 135.396C448.622 128.852 432.438 122.308 413.941 120.127H346.891C337.304 120.735 327.909 122.951 319.146 126.671C325.717 130.499 331.908 134.879 337.643 139.758C346.891 150.665 356.139 187.747 363.076 224.83H411.629V294.632H439.374C439.361 294.342 439.412 294.053 439.523 293.783C439.635 293.512 439.805 293.267 440.022 293.062C440.24 292.857 440.5 292.696 440.786 292.591C441.073 292.486 441.379 292.438 441.686 292.45V207.379L455.559 272.819H485.616C485.616 272.819 469.431 161.572 453.247 135.396ZM150.365 139.758C154.703 134.351 160.222 129.888 166.549 126.671C157.787 122.951 148.392 120.735 138.805 120.127H71.7544C50.9457 122.308 34.7612 128.852 30.137 135.396C13.9525 163.753 0.0800781 272.819 0.0800781 272.819H30.137L44.0095 207.379V290.269C44.0095 292.45 46.3216 292.45 46.3216 294.632H74.0665V224.83H122.62C131.868 187.747 141.117 150.665 150.365 139.758ZM85.6268 235.736V405.879H235.912L231.287 429.873L150.365 438.598V447.324H335.331V438.598L256.72 429.873L252.096 405.879H402.381V235.736H85.6268Z" fill="#4EC0E0"/>
</svg>
